<svg width="60" height="61" viewBox="0 0 60 61" fill="none" xmlns="http://www.w3.org/2000/svg">
<circle cx="30" cy="30.7158" r="30" fill="#EFF6F1"/>
<path fill-rule="evenodd" clip-rule="evenodd" d="M39.2828 31.0001C39.2828 25.873 34.9657 21.7158 29.6414 21.7158C24.3171 21.7158 20 25.873 20 31.0001C20 35.634 23.5251 39.475 28.1349 40.1721V33.6847H25.6863V31.0001H28.1349V28.9547C28.1349 26.6282 29.5747 25.3421 31.7767 25.3421C32.8317 25.3421 33.9353 25.5236 33.9353 25.5236V27.8087H32.7189C31.5219 27.8087 31.1475 28.524 31.1475 29.2593V31.0001H33.8212L33.3942 33.6847H31.1479V40.173C35.7577 39.4762 39.2828 35.6353 39.2828 31.0001Z" fill="#274C5B"/>
</svg>
