<svg width="1920" height="898" viewBox="0 0 1920 898" fill="none" xmlns="http://www.w3.org/2000/svg">
<mask id="mask0_2_10580" style="mask-type:alpha" maskUnits="userSpaceOnUse" x="0" y="0" width="1920" height="898">
<rect width="1920" height="898" fill="#E3F1E9"/>
</mask>
<g mask="url(#mask0_2_10580)">
<path d="M340.729 720.338C340.964 714.867 342.179 707.811 348.249 705.948C352.369 704.689 356.882 705.928 361.095 705.916C369.199 705.89 376.524 700.639 380.933 694.147C385.466 687.481 387.564 679.062 386.565 671.043C386.081 667.103 384.82 663.255 382.748 659.865C380.67 656.461 377.791 653.47 374.858 650.786C368.314 644.818 360.522 640.104 352.279 636.882C344.178 633.719 335.305 631.85 326.582 632.764C322.556 633.192 318.515 634.218 314.878 636.041C310.509 638.237 306.93 641.77 304.235 645.809C298.726 654.074 296.537 664.623 297.167 674.461C297.812 684.269 303.002 693.007 311.753 697.659C316.324 700.089 321.361 701.121 326.398 702.079C328.949 702.568 331.712 703.225 333.272 705.492C334.812 707.724 334.779 710.501 334.474 713.081C334.199 715.305 333.682 717.494 333.422 719.713C333.372 720.108 333.579 720.41 333.965 720.529C335.724 721.041 337.395 721.781 339.254 721.873C340.139 721.909 340.052 720.53 339.167 720.494C337.461 720.417 335.855 719.648 334.233 719.18C334.416 719.457 334.594 719.72 334.776 719.997C335.256 715.86 336.844 711.439 335.599 707.29C334.043 702.132 329.302 701.224 324.626 700.361C319.647 699.432 314.705 698.015 310.392 695.269C306.276 692.647 302.963 688.87 300.981 684.413C296.913 675.286 297.971 663.909 301.326 654.711C303.043 650.008 305.565 645.549 309.1 641.982C312.408 638.646 316.47 636.444 320.991 635.201C329.291 632.912 338.22 633.882 346.376 636.293C354.917 638.824 363.03 643.069 370.05 648.534C376.328 653.428 382.333 659.459 384.449 667.347C386.555 675.205 385.169 683.882 381.259 690.959C377.452 697.828 370.463 703.915 362.318 704.465C358.154 704.749 353.983 703.62 349.819 704.176C345.279 704.791 341.991 708.013 340.571 712.296C339.708 714.904 339.452 717.657 339.345 720.385C339.309 721.32 340.693 721.223 340.729 720.338Z" fill="#577575"/>
<path d="M338.909 715.898C339.348 712.706 339.515 709.463 340.241 706.316C340.589 704.784 341.096 703.282 341.854 701.895C342.721 700.339 343.989 699.096 345.246 697.848C349.242 693.93 354.126 691.027 357.869 686.847C364.841 679.044 367.21 667.595 365.205 657.464C364.085 651.807 361.536 646.509 357.581 642.285C356.968 641.632 356.052 642.668 356.655 643.317C363.795 650.956 365.882 662.205 363.654 672.216C362.465 677.542 360.026 682.575 356.258 686.557C352.509 690.525 347.759 693.359 343.912 697.227C341.54 699.611 339.915 702.06 339.046 705.345C338.166 708.7 338.018 712.199 337.549 715.624C337.429 716.503 338.784 716.788 338.909 715.898Z" fill="#577575"/>
<path d="M338.284 699.745C336.119 683.795 331.537 667.46 334.529 651.317C335.396 646.633 336.959 642.137 339.288 637.989C339.724 637.219 338.489 636.599 338.053 637.369C329.667 652.352 332.048 670.091 334.741 686.269C335.492 690.788 336.297 695.298 336.914 699.836C337.022 700.707 338.402 700.62 338.284 699.745Z" fill="#577575"/>
<path d="M344.219 689.715C353.195 676.736 354.74 659.532 351.511 644.396C351.329 643.526 350.018 643.968 350.205 644.829C353.321 659.426 351.861 676.264 343.201 688.784C342.691 689.505 343.708 690.436 344.219 689.715Z" fill="#577575"/>
<path d="M343.259 675.857C342.288 669.459 343.256 662.922 345.083 656.766C345.336 655.916 343.977 655.642 343.724 656.492C341.871 662.746 340.889 669.437 341.879 675.944C342.011 676.814 343.396 676.742 343.259 675.857Z" fill="#577575"/>
<path d="M331.423 696.424C327.52 690.422 323.914 684.123 322.049 677.165C320.06 669.713 320.535 662.161 321.929 654.65C322.9 649.412 324.302 643.957 327.961 639.92C328.565 639.259 327.533 638.333 326.929 638.994C323.76 642.498 322.176 647.033 321.137 651.569C320.182 655.788 319.475 660.132 319.306 664.462C319.005 671.792 320.583 678.927 323.655 685.576C325.533 689.623 327.818 693.452 330.251 697.184C330.744 697.926 331.902 697.172 331.423 696.424Z" fill="#577575"/>
<path d="M325.541 695.847C318.8 692.662 313.15 687.526 309.772 680.848C305.939 673.248 305.367 664.553 308.3 656.565C310.076 651.744 312.727 647.3 315.037 642.722C315.434 641.932 314.204 641.302 313.802 642.102C309.504 650.616 304.232 659.025 305.055 668.971C305.688 676.609 308.853 683.861 314.142 689.421C317.203 692.64 320.908 695.192 324.916 697.092C325.731 697.464 326.351 696.229 325.541 695.847Z" fill="#577575"/>
<path d="M315.37 676.128C313.848 671.469 313.464 666.441 315.349 661.823C315.686 661.003 314.451 660.383 314.114 661.203C312.08 666.167 312.404 671.536 314.054 676.556C314.33 677.411 315.651 676.974 315.37 676.128Z" fill="#577575"/>
<path d="M330.023 684.716C328.404 678.969 327.774 673.026 327.44 667.084C327.392 666.195 326.012 666.281 326.06 667.171C326.399 673.227 327.053 679.293 328.707 685.143C328.953 686.009 330.259 685.576 330.023 684.716Z" fill="#577575"/>
<path d="M328.113 653.602C328.587 650.266 329.051 646.975 330.87 644.067C331.336 643.311 330.1 642.691 329.635 643.447C327.752 646.458 327.253 649.893 326.759 653.342C326.634 654.207 327.989 654.491 328.113 653.602Z" fill="#577575"/>
<path d="M342.785 647.361C343.125 644.267 343.782 641.234 344.112 638.135C344.207 637.255 342.848 636.981 342.753 637.861C342.412 640.954 341.756 643.988 341.425 647.087C341.34 647.972 342.685 648.251 342.785 647.361Z" fill="#577575"/>
<path d="M352.802 701.207C358.602 697.836 364.89 694.797 368.927 689.219C373.172 683.349 375.293 675.869 374.952 668.662C374.754 664.47 373.766 660.35 372.248 656.448C371.922 655.617 370.617 656.05 370.942 656.88C374.372 665.7 374.479 674.928 370.561 683.597C368.786 687.528 366.201 690.88 362.761 693.494C359.425 696.024 355.654 697.94 352.047 700.049C351.275 700.502 352.035 701.651 352.802 701.207Z" fill="#577575"/>
<path d="M370.587 696.349C373.147 693.713 375.761 691.069 377.738 687.943C379.76 684.754 380.798 681.182 380.837 677.405C380.848 676.52 379.468 676.607 379.457 677.492C379.413 681.154 378.311 684.558 376.305 687.619C374.422 690.508 371.941 692.96 369.555 695.422C368.936 696.064 369.958 696.985 370.587 696.349Z" fill="#577575"/>
<path d="M630.848 195.647C639.244 191.956 647.132 184.625 651.507 176.582C654.515 171.042 657.028 162.239 650.844 157.755C645.421 153.833 637.746 157.004 633.368 161.021C628.458 165.542 624.444 171.665 622.447 178.058C621.462 181.208 620.913 184.77 621.856 188.022C622.842 191.44 625.319 193.771 628.53 195.157C630.275 195.913 631.109 193.089 629.388 192.333C617.895 187.344 628.214 170.784 633.537 165.004C636.964 161.289 642.349 157.488 647.711 159.407C653.82 161.582 651.672 169.972 649.456 174.169C645.199 182.216 637.786 189.395 629.413 193.087C627.696 193.838 629.106 196.421 630.848 195.647Z" fill="white"/>
<path d="M629.8 193.571C631.85 186.944 635.879 181.151 639.6 175.372C640.635 173.778 638.112 172.223 637.101 173.818C633.256 179.805 629.126 185.854 626.998 192.714C626.429 194.51 629.254 195.391 629.8 193.571Z" fill="white"/>
<path d="M610.698 183.796C610.126 178.248 609.389 172.719 608.321 167.227C607.111 160.954 605.708 153.994 602.19 148.55C600.949 146.631 599.284 144.747 596.967 144.21C594.417 143.619 592.023 144.963 590.208 146.653C587.353 149.302 585.037 152.861 584.315 156.701C583.483 161.103 584.296 165.622 585.945 169.718C589.487 178.482 598.135 187.416 608.381 185.731C610.25 185.431 609.532 182.563 607.686 182.863C599.687 184.188 592.825 177.071 589.548 170.575C587.743 166.992 586.634 162.911 586.961 158.895C587.253 155.279 589.039 152.128 591.492 149.515C592.294 148.667 593.19 147.822 594.263 147.334C594.932 147.024 595.688 146.928 596.18 147.036C597.748 147.363 598.953 148.881 599.875 150.414C602.89 155.373 604.152 161.458 605.287 167.07C605.946 170.384 606.487 173.719 606.957 177.051C607.132 178.351 607.307 179.651 607.457 180.973C607.512 181.54 607.59 182.083 607.645 182.65C607.701 183.146 607.738 183.524 607.756 183.712C607.962 185.578 610.903 185.685 610.698 183.796Z" fill="white"/>
<path d="M608.174 182.994C604.773 177.529 602.52 171.486 599.836 165.689C599.037 163.971 596.453 165.38 597.252 167.098C599.936 172.895 602.189 178.938 605.589 184.403C606.58 186.008 609.187 184.6 608.174 182.994Z" fill="white"/>
<path d="M625.222 155.258C630.126 149.302 635.382 142.578 636.69 134.753C637.486 129.974 637.325 124.061 634.762 119.798C633.66 117.977 632.006 116.517 629.822 116.29C627.309 116.03 625.008 117.424 623.128 118.924C618.234 122.856 616.629 129.59 616.692 135.594C616.764 142.164 618.515 149.276 622.58 154.571C623.739 156.063 625.869 154.029 624.71 152.56C621.735 148.709 620.329 143.513 619.806 138.743C619.247 133.572 619.765 127.82 622.857 123.459C624.796 120.713 629.422 117.079 632.02 120.967C634.302 124.351 634.395 129.344 633.953 133.263C633.078 140.794 627.871 147.448 623.211 153.106C622.015 154.555 624.026 156.707 625.222 155.258Z" fill="white"/>
<path d="M625.722 152.444C625.879 146.941 626.624 141.501 626.781 135.997C626.835 134.115 623.894 134.008 623.839 135.913C623.682 141.417 622.938 146.857 622.78 152.36C622.726 154.266 625.668 154.35 625.722 152.444Z" fill="white"/>
<path d="M831.328 368.603C835.48 390.438 849.719 415.678 872.841 421.279C873.471 421.435 874.048 420.94 874.206 420.347C875.832 414.007 874.187 406.974 872.59 400.779C870.691 393.373 868.112 386.583 863.809 380.211C859.845 374.335 855.14 369.959 848.889 366.585C845.763 364.889 842.49 363.466 839.205 362.12C837.736 361.526 836.25 360.934 834.765 360.36C833.723 359.957 832.58 359.225 831.447 359.315C830.779 359.368 830.376 359.943 830.387 360.559C830.381 363.291 831.057 365.912 831.328 368.603C831.484 370.087 833.807 369.92 833.65 368.418C833.379 365.727 832.703 363.106 832.692 360.394C832.333 360.816 831.974 361.237 831.632 361.638C832.394 361.578 834.161 362.634 834.991 362.961C836.38 363.505 837.771 364.067 839.143 364.631C842.101 365.854 845.046 367.153 847.86 368.687C853.878 371.949 858.311 376.197 862.11 381.88C866.079 387.811 868.431 394.096 870.229 400.949C871.807 406.902 873.477 413.784 871.91 419.913C872.371 419.596 872.814 419.299 873.275 418.981C862.142 416.277 853.247 408.345 846.759 399.191C840.293 390.073 835.741 379.399 833.648 368.399C833.366 366.962 831.042 367.129 831.328 368.603Z" fill="#5B7580"/>
<path d="M832.502 363.402C840.921 372.159 848.293 381.859 855.007 391.968C857.896 396.32 860.978 400.508 863.991 404.776C867.133 409.239 870.238 413.949 871.563 419.324C871.922 420.773 874.121 419.98 873.762 418.531C872.471 413.359 869.578 408.726 866.579 404.401C863.388 399.792 860.041 395.326 856.939 390.654C850.1 380.368 842.589 370.567 834.026 361.653C832.967 360.559 831.464 362.344 832.502 363.402Z" fill="#5B7580"/>
<path d="M867.802 414.123C858.52 405.323 848.881 396.514 842.613 385.192C841.892 383.884 839.979 385.215 840.701 386.523C847.056 398.007 856.856 406.971 866.279 415.891C867.371 416.926 868.875 415.16 867.802 414.123Z" fill="#5B7580"/>
<path d="M864.791 393.713C861.3 387.201 856.421 381.81 851.396 376.468C850.374 375.371 848.871 377.156 849.892 378.234C854.795 383.455 859.495 388.711 862.897 395.043C863.583 396.372 865.494 395.023 864.791 393.713Z" fill="#5B7580"/>
<path d="M843.488 380.446C841.995 377.665 840.825 374.71 839.081 372.062C838.739 371.528 837.964 371.421 837.451 371.78C836.918 372.14 836.809 372.879 837.169 373.411C838.913 376.059 840.084 379.015 841.577 381.795C841.883 382.351 842.729 382.414 843.207 382.077C843.754 381.678 843.775 381.003 843.488 380.446Z" fill="#5B7580"/>
<path d="M837.155 339.706C850.753 357.383 874.794 373.331 897.992 367.927C898.654 367.781 898.814 366.982 898.696 366.43C897.262 359.942 892.475 354.3 888.201 349.459C883.475 344.112 878.528 339.512 872.315 335.911C866.082 332.292 859.882 330.262 852.66 329.958C848.947 329.805 845.224 330.009 841.509 330.305C839.856 330.437 838.185 330.588 836.533 330.739C835.365 330.851 834.008 330.716 832.992 331.339C832.6 331.576 832.336 332.252 832.559 332.702C833.808 335.24 835.639 337.339 837.155 339.706C837.966 340.969 839.879 339.638 839.068 338.375C837.678 336.185 835.914 334.23 834.739 331.911C834.589 332.372 834.455 332.813 834.305 333.273C834.947 332.886 837.183 333.025 838.093 332.953C839.652 332.81 841.211 332.667 842.773 332.561C846.118 332.313 849.471 332.158 852.828 332.302C859.731 332.593 865.679 334.738 871.601 338.212C877.505 341.689 882.2 346.178 886.684 351.301C890.695 355.882 895.135 361.159 896.48 367.243C896.72 366.738 896.943 366.252 897.183 365.747C886.024 368.339 874.502 365.217 864.587 359.965C854.71 354.73 845.869 347.241 839.069 338.393C838.151 337.194 836.238 338.525 837.155 339.706Z" fill="#5B7580"/>
<path d="M835.592 334.407C847.401 338.553 858.643 344.035 869.494 350.241C873.961 352.803 878.572 355.073 883.103 357.499C887.653 359.942 892.317 362.638 895.717 366.594C896.685 367.714 898.6 366.402 897.63 365.263C890.953 357.49 880.654 353.99 871.993 348.994C860.685 342.451 848.949 336.634 836.602 332.306C835.199 331.819 834.188 333.92 835.592 334.407Z" fill="#5B7580"/>
<path d="M890.133 363.823C877.992 360.189 865.47 356.717 854.876 349.518C853.65 348.681 852.128 350.448 853.372 351.284C864.323 358.735 877.136 362.353 889.7 366.121C891.136 366.549 891.551 364.252 890.133 363.823Z" fill="#5B7580"/>
<path d="M878.499 347.108C872.44 342.859 865.705 340.216 858.793 337.699C857.388 337.194 856.378 339.295 857.782 339.8C864.483 342.24 871.096 344.762 876.994 348.874C878.222 349.73 879.726 347.964 878.499 347.108Z" fill="#5B7580"/>
<path d="M853.511 344.871C850.839 343.008 848.386 340.847 845.546 339.221C845.017 338.927 844.236 339.213 843.981 339.758C843.712 340.378 843.967 340.993 844.517 341.324C845.221 341.716 845.734 342.05 846.347 342.468C847 342.921 847.636 343.394 848.272 343.867C849.505 344.798 850.702 345.75 851.97 346.64C852.465 346.994 853.199 347.047 853.604 346.51C853.999 346.067 854.047 345.259 853.511 344.871Z" fill="#5B7580"/>
<path d="M314.328 345.75C312.425 352.911 302.573 355.29 296.19 355.463C292.891 355.554 289.098 355.224 286.316 353.292C285.263 352.567 284.428 351.557 284.117 350.293C283.765 348.83 284.063 346.638 285.062 345.493C286.257 344.13 288.334 345.402 289.559 346.085C291.197 346.993 292.805 348.095 294.602 348.651C298.307 349.792 302.743 347.309 303.686 343.526C304.612 339.794 301.807 336.086 298.266 335.14C294.422 334.108 290.149 335.084 286.337 335.849C282.665 336.588 278.096 338.174 274.416 336.829C271.717 335.831 269.735 333.592 268.544 331.025C268.339 330.575 267.283 328.711 267.694 328.168C267.722 328.141 268.683 328.306 268.947 328.37C272.329 329.27 275.615 331.59 279.226 331.375C282.61 331.175 285.821 328.324 284.364 324.842C282.875 321.292 279.352 319.733 275.957 318.634C273.884 317.964 271.321 317.19 270.301 315.061C269.713 313.822 269.413 310.341 271.12 309.635C272.895 308.898 274.929 311.358 276.785 311.158C280.121 310.802 278.456 304.906 277.212 303.422C275.674 301.614 273.3 300.692 271.13 299.877C268.607 298.932 266.017 298.019 263.71 296.583C261.212 295.035 259.507 292.827 258.845 289.934C258.293 287.523 258.69 284.995 259.438 282.654C260.129 280.45 261.273 277.903 263.369 276.693C265.275 275.603 267.088 276.165 268.073 278.022C269.441 280.586 269.671 285.282 272.918 286.33C274.417 286.811 276.355 286.268 277.404 285.113C278.56 283.838 278.871 281.984 279.123 280.35C279.449 278.186 279.531 275.948 280.194 273.855C280.913 271.596 282.662 270.238 284.771 269.283C289.034 267.351 294.821 267.907 296.581 272.863C298.255 277.587 294.582 281.472 292.861 285.549C291.105 289.699 291.454 299.118 298.17 296.654C300.727 295.715 302.989 293.998 305.26 292.525C307.402 291.128 309.87 289.353 312.486 289.044C314.763 288.777 316.769 290.839 316.436 293.157C316.073 295.696 313.222 297.589 311.312 298.955C306.778 302.228 299.18 305.821 298.566 312.15C298.166 316.259 301.122 319.852 304.828 321.281C309.042 322.903 314.262 321.468 315.526 316.76C316.117 314.577 315.98 312.226 316.858 310.124C317.679 308.159 319.794 306.308 321.924 305.906C325.241 305.257 326.677 309.121 326.894 311.749C327.207 315.485 325.759 318.963 322.798 321.252C320.552 322.975 316.068 325.358 316.905 328.839C317.836 332.741 321.951 332.063 324.925 331.841C326.919 331.697 328.366 332.41 328.644 334.569C328.892 336.468 327.62 338.129 326.299 339.348C323.719 341.713 320.161 343.482 316.758 344.323C315.798 344.556 316.073 346.085 317.044 345.847C320.585 344.979 324.199 343.211 326.978 340.831C329.585 338.604 331.709 334.592 328.963 331.543C326.414 328.701 322.428 331.941 319.623 330.129C315.422 327.429 322.716 323.38 324.494 321.885C327.228 319.609 328.535 316.008 328.472 312.508C328.425 309.632 327.435 306.006 324.567 304.719C321.298 303.256 317.235 306.053 315.75 308.89C314.679 310.935 314.673 313.246 314.252 315.469C313.702 318.36 311.719 320.339 308.663 320.449C304.084 320.598 299.16 316.491 300.21 311.626C300.896 308.477 303.83 306.187 306.287 304.362C309.052 302.32 312.073 300.578 314.674 298.313C316.52 296.702 318.401 294.511 317.924 291.885C317.499 289.509 315.543 287.519 313.069 287.497C310.402 287.473 307.848 289.098 305.673 290.456C303.207 292.01 300.838 293.847 298.162 295.023C295.97 295.978 294.341 295.683 293.763 293.161C293.306 291.171 293.283 288.998 293.938 287.059C294.673 284.862 296.009 282.936 297.041 280.868C299.033 276.893 299.265 271.959 295.64 268.8C292.388 265.956 287.442 266.283 283.757 268.072C281.886 268.98 280.083 270.282 279.174 272.207C278.27 274.115 278.066 276.302 277.814 278.362C277.592 280.173 277.574 283.053 276.019 284.329C274.392 285.683 272.593 284.839 271.744 283.204C270.339 280.507 270.082 275.7 266.58 274.749C261.903 273.476 258.914 278.911 257.846 282.548C256.471 287.226 256.772 292.465 260.452 296.05C262.3 297.845 264.666 298.977 267.028 299.959C269.577 301.016 272.441 301.727 274.723 303.312C275.859 304.093 276.759 305.153 277.024 306.549C277.139 307.153 277.383 308.848 276.912 309.406C276.406 310.009 275.369 309.317 274.769 309.045C272.639 308.088 270.12 307.264 268.897 309.959C268.055 311.824 268.031 314.267 269.043 316.07C270.061 317.911 272.014 318.9 273.914 319.612C275.914 320.359 278.106 320.737 279.856 321.989C281.222 322.96 282.792 324.437 283.131 326.155C283.569 328.333 281.006 329.714 279.15 329.859C277.284 330.01 275.302 329.131 273.606 328.471C272.152 327.914 266.709 324.951 266.124 327.996C265.746 329.966 267.445 332.616 268.517 334.115C269.915 336.088 271.888 337.658 274.208 338.413C277.951 339.632 282.351 338.238 286.057 337.482C289.952 336.691 294.899 335.319 298.747 336.954C300.707 337.788 302.275 339.912 302.276 342.068C302.283 344.661 300.061 346.687 297.663 347.247C293.695 348.171 290.779 344.092 287.085 343.426C283.507 342.773 282.082 347.064 282.428 349.959C282.775 352.827 285.076 354.732 287.62 355.75C294.338 358.45 303.464 357.041 309.596 353.46C312.383 351.832 314.88 349.466 315.733 346.263C316.044 345.288 314.589 344.786 314.328 345.75Z" fill="#9D8A69"/>
</g>
</svg>
